<mxfile host="app.diagrams.net" modified="2022-09-07T11:37:39.742Z" agent="5.0 (Windows NT 10.0; Win64; x64) AppleWebKit/537.36 (KHTML, like Gecko) Chrome/105.0.0.0 Safari/537.36" etag="8IP22MzUhbWEWhJfXf5T" version="20.2.8" type="github">
  <diagram id="kgpKYQtTHZ0yAKxKKP6v" name="Page-1">
    <mxGraphModel dx="868" dy="425" grid="1" gridSize="10" guides="1" tooltips="1" connect="1" arrows="1" fold="1" page="1" pageScale="1" pageWidth="850" pageHeight="1100" math="0" shadow="0">
      <root>
        <mxCell id="0" />
        <mxCell id="1" parent="0" />
        <mxCell id="GbCNeb0mkOd2Htsf3bPN-1" value="" style="rounded=0;whiteSpace=wrap;html=1;fillColor=#f8cecc;strokeColor=#b85450;" vertex="1" parent="1">
          <mxGeometry x="40" y="150" width="790" height="300" as="geometry" />
        </mxCell>
        <mxCell id="GbCNeb0mkOd2Htsf3bPN-2" value="" style="rounded=0;whiteSpace=wrap;html=1;fillColor=#fff2cc;strokeColor=#d6b656;" vertex="1" parent="1">
          <mxGeometry x="43" y="130" width="747" height="290" as="geometry" />
        </mxCell>
        <mxCell id="GbCNeb0mkOd2Htsf3bPN-3" value="" style="rounded=0;whiteSpace=wrap;html=1;fillColor=#d5e8d4;strokeColor=#82b366;" vertex="1" parent="1">
          <mxGeometry x="47" y="107" width="713" height="283" as="geometry" />
        </mxCell>
        <mxCell id="GbCNeb0mkOd2Htsf3bPN-4" value="" style="rounded=0;whiteSpace=wrap;html=1;fillColor=#dae8fc;strokeColor=#6c8ebf;" vertex="1" parent="1">
          <mxGeometry x="52" y="60" width="678" height="310" as="geometry" />
        </mxCell>
        <mxCell id="GbCNeb0mkOd2Htsf3bPN-5" value="" style="rounded=0;whiteSpace=wrap;html=1;fillColor=#6a00ff;fontColor=#ffffff;strokeColor=#3700CC;" vertex="1" parent="1">
          <mxGeometry x="60" y="80" width="480" height="100" as="geometry" />
        </mxCell>
        <mxCell id="GbCNeb0mkOd2Htsf3bPN-7" value="" style="rounded=0;whiteSpace=wrap;html=1;fillColor=#6a00ff;fontColor=#ffffff;strokeColor=#3700CC;" vertex="1" parent="1">
          <mxGeometry x="60" y="190" width="240" height="80" as="geometry" />
        </mxCell>
        <mxCell id="GbCNeb0mkOd2Htsf3bPN-8" value="" style="rounded=0;whiteSpace=wrap;html=1;fillColor=#6a00ff;fontColor=#ffffff;strokeColor=#3700CC;" vertex="1" parent="1">
          <mxGeometry x="310" y="190" width="230" height="80" as="geometry" />
        </mxCell>
        <mxCell id="GbCNeb0mkOd2Htsf3bPN-9" value="" style="rounded=0;whiteSpace=wrap;html=1;rotation=90;fillColor=#6a00ff;fontColor=#ffffff;strokeColor=#3700CC;" vertex="1" parent="1">
          <mxGeometry x="430" y="200" width="280" height="40" as="geometry" />
        </mxCell>
        <mxCell id="GbCNeb0mkOd2Htsf3bPN-10" value="" style="rounded=0;whiteSpace=wrap;html=1;fillColor=#6a00ff;fontColor=#ffffff;strokeColor=#3700CC;" vertex="1" parent="1">
          <mxGeometry x="60" y="280" width="480" height="80" as="geometry" />
        </mxCell>
        <mxCell id="GbCNeb0mkOd2Htsf3bPN-11" value="" style="rounded=0;whiteSpace=wrap;html=1;fillColor=#6a00ff;fontColor=#ffffff;strokeColor=#3700CC;" vertex="1" parent="1">
          <mxGeometry x="600" y="80" width="110" height="280" as="geometry" />
        </mxCell>
        <mxCell id="GbCNeb0mkOd2Htsf3bPN-14" value="Website for customer sourcing - Portal External" style="rounded=1;whiteSpace=wrap;html=1;fillColor=#f5f5f5;fontColor=#333333;strokeColor=#666666;" vertex="1" parent="1">
          <mxGeometry x="90" y="114" width="190" height="50" as="geometry" />
        </mxCell>
        <mxCell id="GbCNeb0mkOd2Htsf3bPN-15" value="Portal Internal" style="rounded=1;whiteSpace=wrap;html=1;fillColor=#f5f5f5;fontColor=#333333;strokeColor=#666666;" vertex="1" parent="1">
          <mxGeometry x="310" y="114" width="200" height="50" as="geometry" />
        </mxCell>
        <mxCell id="GbCNeb0mkOd2Htsf3bPN-17" value="" style="rounded=1;whiteSpace=wrap;html=1;fillColor=#f5f5f5;fontColor=#333333;strokeColor=#666666;" vertex="1" parent="1">
          <mxGeometry x="179" y="210" width="110" height="30" as="geometry" />
        </mxCell>
        <mxCell id="GbCNeb0mkOd2Htsf3bPN-18" value="" style="rounded=1;whiteSpace=wrap;html=1;fillColor=#f5f5f5;fontColor=#333333;strokeColor=#666666;" vertex="1" parent="1">
          <mxGeometry x="415" y="210" width="110" height="30" as="geometry" />
        </mxCell>
        <mxCell id="GbCNeb0mkOd2Htsf3bPN-19" value="User Directories" style="rounded=1;whiteSpace=wrap;html=1;fillColor=#f5f5f5;fontColor=#333333;strokeColor=#666666;" vertex="1" parent="1">
          <mxGeometry x="110" y="310" width="110" height="29" as="geometry" />
        </mxCell>
        <mxCell id="GbCNeb0mkOd2Htsf3bPN-20" value="Oauth / Tokens&amp;nbsp;" style="rounded=1;whiteSpace=wrap;html=1;fillColor=#f5f5f5;fontColor=#333333;strokeColor=#666666;" vertex="1" parent="1">
          <mxGeometry x="257" y="310" width="110" height="29" as="geometry" />
        </mxCell>
        <mxCell id="GbCNeb0mkOd2Htsf3bPN-21" value="SSL/Trust stores" style="rounded=1;whiteSpace=wrap;html=1;fillColor=#f5f5f5;fontColor=#333333;strokeColor=#666666;" vertex="1" parent="1">
          <mxGeometry x="410" y="310" width="110" height="29" as="geometry" />
        </mxCell>
        <mxCell id="GbCNeb0mkOd2Htsf3bPN-22" value="" style="rounded=1;whiteSpace=wrap;html=1;fillColor=#f5f5f5;fontColor=#333333;strokeColor=#666666;" vertex="1" parent="1">
          <mxGeometry x="615" y="106" width="75" height="30" as="geometry" />
        </mxCell>
        <mxCell id="GbCNeb0mkOd2Htsf3bPN-23" value="" style="rounded=1;whiteSpace=wrap;html=1;fillColor=#f5f5f5;fontColor=#333333;strokeColor=#666666;" vertex="1" parent="1">
          <mxGeometry x="615" y="143" width="75" height="30" as="geometry" />
        </mxCell>
        <mxCell id="GbCNeb0mkOd2Htsf3bPN-24" value="" style="rounded=1;whiteSpace=wrap;html=1;fillColor=#f5f5f5;fontColor=#333333;strokeColor=#666666;" vertex="1" parent="1">
          <mxGeometry x="615.5" y="181" width="75" height="30" as="geometry" />
        </mxCell>
        <mxCell id="GbCNeb0mkOd2Htsf3bPN-28" value="" style="rounded=1;whiteSpace=wrap;html=1;fillColor=#f5f5f5;fontColor=#333333;strokeColor=#666666;" vertex="1" parent="1">
          <mxGeometry x="614" y="233" width="75" height="30" as="geometry" />
        </mxCell>
        <mxCell id="GbCNeb0mkOd2Htsf3bPN-29" value="" style="rounded=1;whiteSpace=wrap;html=1;fillColor=#f5f5f5;fontColor=#333333;strokeColor=#666666;" vertex="1" parent="1">
          <mxGeometry x="615" y="270" width="75" height="30" as="geometry" />
        </mxCell>
        <mxCell id="GbCNeb0mkOd2Htsf3bPN-30" value="" style="rounded=1;whiteSpace=wrap;html=1;fillColor=#f5f5f5;fontColor=#333333;strokeColor=#666666;" vertex="1" parent="1">
          <mxGeometry x="615" y="306" width="75" height="30" as="geometry" />
        </mxCell>
        <mxCell id="GbCNeb0mkOd2Htsf3bPN-31" value="Digital Presence - UI" style="text;html=1;strokeColor=none;fillColor=none;align=center;verticalAlign=middle;whiteSpace=wrap;rounded=0;fontStyle=1;fontColor=#FFFFFF;" vertex="1" parent="1">
          <mxGeometry x="220" y="84" width="200" height="30" as="geometry" />
        </mxCell>
        <mxCell id="GbCNeb0mkOd2Htsf3bPN-32" value="API Gateway" style="text;html=1;strokeColor=none;fillColor=none;align=center;verticalAlign=middle;whiteSpace=wrap;rounded=0;fontStyle=1;fontColor=#FFFFFF;rotation=90;" vertex="1" parent="1">
          <mxGeometry x="470" y="200" width="200" height="30" as="geometry" />
        </mxCell>
        <mxCell id="GbCNeb0mkOd2Htsf3bPN-33" value="Security Services" style="text;html=1;strokeColor=none;fillColor=none;align=center;verticalAlign=middle;whiteSpace=wrap;rounded=0;fontStyle=1;fontColor=#FFFFFF;" vertex="1" parent="1">
          <mxGeometry x="210" y="280" width="200" height="30" as="geometry" />
        </mxCell>
        <mxCell id="GbCNeb0mkOd2Htsf3bPN-34" value="Technical" style="text;html=1;strokeColor=none;fillColor=none;align=center;verticalAlign=middle;whiteSpace=wrap;rounded=0;fontStyle=1;fontColor=#FFFFFF;" vertex="1" parent="1">
          <mxGeometry x="70" y="200" width="73" height="20" as="geometry" />
        </mxCell>
        <mxCell id="GbCNeb0mkOd2Htsf3bPN-35" value="Functional" style="text;html=1;strokeColor=none;fillColor=none;align=center;verticalAlign=middle;whiteSpace=wrap;rounded=0;fontStyle=1;fontColor=#FFFFFF;" vertex="1" parent="1">
          <mxGeometry x="317" y="200" width="73" height="20" as="geometry" />
        </mxCell>
        <mxCell id="GbCNeb0mkOd2Htsf3bPN-36" value="Third Party Integrations" style="text;html=1;strokeColor=none;fillColor=none;align=center;verticalAlign=middle;whiteSpace=wrap;rounded=0;fontStyle=1;fontColor=#FFFFFF;rotation=90;" vertex="1" parent="1">
          <mxGeometry x="590" y="210" width="220" height="30" as="geometry" />
        </mxCell>
      </root>
    </mxGraphModel>
  </diagram>
</mxfile>
